<?xml version="1.0" ?><svg viewBox="0 0 512 512" xmlns="http://www.w3.org/2000/svg" fill="white"><title/><g data-name="1" id="_1"><path d="M204.46,330.31A15,15,0,0,1,191,321.86l-12.27-25.29a43.1,43.1,0,0,1,20-57.6h0a43.11,43.11,0,0,1,37.64,77.56L211,328.8A14.85,14.85,0,0,1,204.46,330.31ZM211.74,266a13.11,13.11,0,0,0-6.07,17.51l5.72,11.8,11.79-5.73A13.11,13.11,0,1,0,211.73,266Z"/><path d="M149.37,452.52a47.7,47.7,0,0,1-47.63-46.58h0l-1.38-59.68A54.9,54.9,0,0,0,84.7,309.07,43.86,43.86,0,0,1,76.81,259,79.17,79.17,0,0,1,113,223.12l24.32-11.81-12.36-25.46a15,15,0,0,1,6.94-20L233,116.72a15,15,0,0,1,20.05,6.94l66,136a15,15,0,0,1-6.95,20L211,328.8a15,15,0,0,1-20-6.94l-6.37-13.12a9.91,9.91,0,0,0-13.25-4.59,10,10,0,0,0-4.92,12.5l27.46,71a47.71,47.71,0,0,1-44.5,64.89Zm9.11-266.27,12.36,25.46a15,15,0,0,1-7,20l-37.81,18.36a49.07,49.07,0,0,0-22.41,22.2,13.83,13.83,0,0,0,2.5,15.8,84.78,84.78,0,0,1,24.18,57.45l1.38,59.68h0a17.68,17.68,0,1,0,34.16-6.78l-27.46-71a40.14,40.14,0,0,1,19.8-50.32,39.91,39.91,0,0,1,53.16,18.11l74.16-36-52.91-109Z"/><path d="M353.32,165.62a15,15,0,0,1-13.5-8.45l-18.19-37.48a15,15,0,0,1,6.2-19.66L407.6,55.62a15,15,0,0,1,20.79,6.55l22.67,46.7a15,15,0,0,1-7.72,20.39l-84.25,35.2A15,15,0,0,1,353.32,165.62Zm1.49-46.27,5.8,12,56.53-23.62-8.81-18.14Z"/><path d="M157.35,233.26a15,15,0,0,1-6.56-28.49l101.15-49.1a15,15,0,1,1,13.1,27L163.89,231.75A14.86,14.86,0,0,1,157.35,233.26Z"/><path d="M260.2,187.66a15,15,0,0,1-6.56-28.49l84-40.79a15,15,0,0,1,13.1,27l-84,40.79A15,15,0,0,1,260.2,187.66Z"/><path d="M112.45,342.61a15,15,0,0,1-2-29.86l39.94-5.54a15,15,0,1,1,4.13,29.71l-39.94,5.55A14.78,14.78,0,0,1,112.45,342.61Z"/><path d="M90.23,280.64A14.92,14.92,0,0,1,83.42,279L63.37,268.76A15,15,0,1,1,77,242l20.06,10.23a15,15,0,0,1-6.83,28.37Z"/><path d="M240.54,232.59a14.66,14.66,0,0,1-1.48-.07,14.51,14.51,0,0,1-1.45-.22c-.48-.1-1-.22-1.43-.36a14.25,14.25,0,0,1-1.38-.5,13.36,13.36,0,0,1-1.33-.62c-.43-.23-.85-.49-1.26-.76a12.82,12.82,0,0,1-1.18-.87,14.67,14.67,0,0,1-1.1-1,15.11,15.11,0,0,1-4.39-10.61,14.46,14.46,0,0,1,.07-1.47,14.28,14.28,0,0,1,.22-1.46c.1-.48.22-.95.36-1.42a16.57,16.57,0,0,1,1.12-2.71,16.64,16.64,0,0,1,1.63-2.45,12.8,12.8,0,0,1,1-1.09,14.67,14.67,0,0,1,1.1-1,12.91,12.91,0,0,1,1.18-.88q.61-.41,1.26-.75c.43-.23.88-.44,1.33-.63s.92-.35,1.38-.49a12,12,0,0,1,1.43-.36,14.51,14.51,0,0,1,1.45-.22A15.07,15.07,0,0,1,251.14,207a12.8,12.8,0,0,1,1,1.09,14.61,14.61,0,0,1,.88,1.19,14.43,14.43,0,0,1,.75,1.26c.23.43.44.88.63,1.33a13.29,13.29,0,0,1,.49,1.38,11.81,11.81,0,0,1,.36,1.42,14.28,14.28,0,0,1,.22,1.46,14.48,14.48,0,0,1,.08,1.47,14.68,14.68,0,0,1-.08,1.48,14.51,14.51,0,0,1-.22,1.45,12,12,0,0,1-.36,1.43,14.17,14.17,0,0,1-.49,1.38c-.19.45-.4.9-.63,1.33s-.48.85-.75,1.26a12.91,12.91,0,0,1-.88,1.18,14.67,14.67,0,0,1-1,1.1A15.09,15.09,0,0,1,240.54,232.59Z"/><path d="M392.4,149.29a15,15,0,0,1-13.79-9.07L360.2,97.44a15,15,0,1,1,27.55-11.86l18.42,42.78a15,15,0,0,1-13.77,20.93Z"/></g></svg>
