<?xml version="1.0" ?><svg viewBox="0 0 512 512" xmlns="http://www.w3.org/2000/svg" fill="white"><title/><g data-name="1" id="_1"><path d="M215.08,249.15a15,15,0,0,1-5.48-29l15.29-6a15,15,0,0,1,11,27.93l-15.3,6A14.87,14.87,0,0,1,215.08,249.15Z"/><path d="M310.55,249.15a14.88,14.88,0,0,1-5.48-1l-15.29-6a15,15,0,0,1,11-27.93l15.29,6a15,15,0,0,1-5.48,29Z"/><path d="M273.58,276.69H252a15,15,0,0,1,0-30h21.54a15,15,0,0,1,0,30Z"/><path d="M159.42,452.35a14.92,14.92,0,0,1-9.35-3.28,137,137,0,0,1-51-120.29l14.72-155.26c3.23-34,20.44-65.32,48.47-88.22,27.57-22.54,63.29-34.95,100.56-34.95s73,12.41,100.57,34.95c28,22.9,45.24,54.23,48.46,88.22l14.73,155.25a136.94,136.94,0,0,1-51,120.3,15,15,0,0,1-18.73-23.44,107,107,0,0,0,39.88-94L382,176.35c-2.46-25.94-15.81-50-37.59-67.82-22.23-18.17-51.2-28.18-81.58-28.18s-59.35,10-81.58,28.18c-21.77,17.79-35.12,41.88-37.58,67.82L128.93,331.61a107,107,0,0,0,39.86,94,15,15,0,0,1-9.37,26.71Z"/><path d="M262.81,194.15a15,15,0,0,1-15-15c0-24-16.35-66.44-38.95-75.8C197.8,98.77,185.74,103.23,172,117a15,15,0,0,1-21.21-21.21C179.38,67.16,204.4,69,220.34,75.63c18.41,7.63,32.73,25.23,42.47,45,9.74-19.77,24.06-37.37,42.47-45,16-6.6,41-8.47,69.58,20.14A15,15,0,0,1,353.65,117c-13.76-13.75-25.82-18.21-36.89-13.63-22.59,9.36-38.95,51.77-38.95,75.8A15,15,0,0,1,262.81,194.15Z"/><path d="M313.64,176.15a15,15,0,0,1-14.3-19.52C305.55,137,320,121.6,338,115.56c18.48-6.2,38.94-2.31,57.61,11A15,15,0,1,1,378.26,151c-10.8-7.67-21.42-10.08-30.7-7-8.95,3-16.28,11.1-19.62,21.67A15,15,0,0,1,313.64,176.15Z"/><path d="M212.45,176.15a15,15,0,0,1-14.3-10.48C194.81,155.1,187.48,147,178.54,144c-9.28-3.11-19.9-.7-30.7,7a15,15,0,0,1-17.38-24.46c18.68-13.26,39.14-17.15,57.62-11,18,6,32.46,21.39,38.68,41.07A15,15,0,0,1,217,175.45,14.79,14.79,0,0,1,212.45,176.15Z"/><path d="M161,285.82a15,15,0,0,0-20.59-5.08,82,82,0,0,0-17,13.79h0c-10.74,11.42-23.55,31.7-23.55,63.52a15,15,0,0,0,30,0c0-17.65,5.18-32.1,15.4-42.95a50.6,50.6,0,0,1,10.67-8.68A15,15,0,0,0,161,285.82Z"/><path d="M116.33,328a15,15,0,0,1-15-15c0-52.68,44.49-79.26,46.38-80.37a15,15,0,0,1,15.18,25.87c-1.44.87-31.56,19.4-31.56,54.5A15,15,0,0,1,116.33,328Z"/><path d="M364.94,285.82a15,15,0,0,1,20.59-5.08,82,82,0,0,1,17,13.79h0c10.74,11.42,23.55,31.7,23.55,63.52a15,15,0,0,1-30,0c0-17.65-5.18-32.1-15.39-42.95A51.11,51.11,0,0,0,370,306.42,15,15,0,0,1,364.94,285.82Z"/><path d="M409.58,328a15,15,0,0,0,15-15c0-52.68-44.48-79.26-46.38-80.37A15,15,0,0,0,363,258.51c1.44.87,31.56,19.4,31.56,54.5A15,15,0,0,0,409.58,328Z"/><path d="M262.81,452.35a15,15,0,0,1-15-15V393.64a15,15,0,0,1,30,0v43.71A15,15,0,0,1,262.81,452.35Z"/><path d="M306.48,452.35a15,15,0,0,1-10.61-25.6c22.83-22.83,25.67-41.92,25.68-42.11a15,15,0,1,1,29.85,3c-.29,3-3.77,29.79-34.31,60.33A15,15,0,0,1,306.48,452.35Z"/><path d="M210.1,336.19a15,15,0,0,1-10.61-25.61,45.62,45.62,0,0,1,32.45-13.44,15.89,15.89,0,0,0,15.87-15.87V261.69a15,15,0,0,1,30,0v19.58a45.93,45.93,0,0,1-45.87,45.87,15.76,15.76,0,0,0-11.23,4.65A15,15,0,0,1,210.1,336.19Z"/><path d="M315.52,336.19a15,15,0,0,1-10.6-4.4,15.78,15.78,0,0,0-11.23-4.65,45.93,45.93,0,0,1-45.88-45.87V261.69a15,15,0,0,1,30,0v19.58a15.9,15.9,0,0,0,15.88,15.87,45.56,45.56,0,0,1,32.44,13.44,15,15,0,0,1-10.61,25.61Z"/><path d="M399.39,216.32a15,15,0,0,1-14.91-13.59c-.33-3.48-1.42-4.44-3.74-5.27-8-2.88-21.94,1.31-25.13,4.5a15,15,0,1,1-21.22-21.21c11.08-11.08,37-18.53,56.51-11.52,13.51,4.87,22.06,16,23.44,30.67a15,15,0,0,1-13.51,16.35C400.35,216.29,399.87,216.32,399.39,216.32Z"/><path d="M126.52,216.32c-.47,0-1,0-1.43-.07a15,15,0,0,1-13.52-16.35c1.39-14.63,9.93-25.8,23.45-30.67,19.49-7,45.42.44,56.5,11.52A15,15,0,1,1,170.31,202c-3.2-3.19-17.14-7.37-25.14-4.5-2.31.83-3.4,1.79-3.73,5.27A15,15,0,0,1,126.52,216.32Z"/><path d="M219.15,452.35a15,15,0,0,0,10.6-25.6c-22.83-22.83-25.66-41.92-25.68-42.11a15,15,0,1,0-29.85,3c.3,3,3.78,29.79,34.32,60.33A15,15,0,0,0,219.15,452.35Z"/></g></svg>
