<?xml version="1.0" ?><svg viewBox="0 0 512 512" xmlns="http://www.w3.org/2000/svg" fill="white"><title/><g data-name="1" id="_1"><path d="M143.54,326.85a15,15,0,0,0,14-9.55c8.76-22.43,28.48-25.14,28.67-25.16A15,15,0,1,0,183,262.31c-1.54.17-38,4.5-53.42,44.08a15,15,0,0,0,14,20.46Z"/><path d="M298.8,255.15c-.73,0-1.48,0-2.21-.11s-1.47-.19-2.19-.33-1.43-.33-2.13-.54-1.4-.46-2.08-.74-1.34-.6-2-.94-1.28-.73-1.89-1.13-1.21-.85-1.78-1.31-1.12-1-1.64-1.49-1-1.07-1.49-1.64-.9-1.17-1.31-1.78-.78-1.25-1.13-1.89-.66-1.32-.94-2-.53-1.38-.74-2.08-.39-1.42-.54-2.13-.26-1.46-.33-2.19-.11-1.48-.11-2.21,0-1.48.11-2.21.19-1.47.33-2.19.33-1.43.54-2.13.46-1.4.74-2.08.6-1.34.94-2,.73-1.28,1.13-1.89.85-1.21,1.31-1.78,1-1.12,1.49-1.64,1.07-1,1.64-1.49,1.17-.9,1.78-1.31,1.25-.78,1.89-1.13,1.32-.66,2-.94,1.38-.53,2.08-.74,1.42-.39,2.13-.54,1.46-.26,2.19-.33a21.76,21.76,0,0,1,4.42,0c.73.07,1.47.19,2.19.33s1.43.33,2.13.54,1.4.46,2.08.74,1.34.6,2,.94,1.28.73,1.89,1.13,1.21.85,1.78,1.31,1.12,1,1.64,1.49,1,1.07,1.49,1.64.9,1.17,1.31,1.78.78,1.25,1.13,1.89.66,1.32.94,2,.53,1.38.74,2.08.4,1.42.54,2.13a20.3,20.3,0,0,1,.33,2.19c.07.73.11,1.48.11,2.21s0,1.48-.11,2.21a20.3,20.3,0,0,1-.33,2.19c-.14.71-.33,1.43-.54,2.13s-.46,1.4-.74,2.08-.6,1.34-.94,2-.73,1.28-1.13,1.89-.85,1.21-1.31,1.78-1,1.12-1.49,1.64-1.07,1-1.64,1.49-1.17.9-1.78,1.31-1.25.78-1.89,1.13-1.32.66-2,.94-1.38.53-2.08.74-1.42.39-2.13.54-1.46.26-2.19.33S299.54,255.15,298.8,255.15Z"/><path d="M201.48,255.15c-.74,0-1.48,0-2.21-.11s-1.47-.19-2.19-.33-1.43-.33-2.13-.54-1.4-.46-2.08-.74-1.34-.6-2-.94-1.28-.73-1.89-1.13-1.21-.85-1.78-1.31-1.12-1-1.64-1.49-1-1.07-1.49-1.64-.9-1.17-1.31-1.78-.78-1.25-1.13-1.89-.66-1.32-.94-2-.53-1.38-.74-2.08-.4-1.42-.54-2.13a20.3,20.3,0,0,1-.33-2.19c-.07-.73-.11-1.47-.11-2.21s0-1.48.11-2.21a20.3,20.3,0,0,1,.33-2.19c.14-.71.33-1.43.54-2.13s.46-1.4.74-2.08.6-1.34.94-2,.73-1.28,1.13-1.89.85-1.21,1.31-1.78,1-1.12,1.49-1.64a20.86,20.86,0,0,1,1.64-1.48c.57-.47,1.17-.91,1.78-1.32s1.24-.78,1.89-1.13,1.32-.66,2-.94,1.38-.53,2.08-.74,1.42-.4,2.13-.54,1.46-.26,2.19-.33a21.76,21.76,0,0,1,4.42,0c.73.07,1.46.19,2.19.33s1.43.33,2.13.54,1.4.46,2.08.74,1.34.6,2,.94,1.28.73,1.89,1.13,1.21.85,1.78,1.32a21.57,21.57,0,0,1,3.12,3.12c.47.57.91,1.17,1.32,1.78s.78,1.25,1.12,1.89.67,1.32.95,2,.53,1.38.74,2.08.39,1.42.54,2.13.25,1.46.33,2.19.11,1.48.11,2.21,0,1.48-.11,2.21-.19,1.47-.33,2.19-.33,1.43-.54,2.13-.46,1.4-.74,2.08-.6,1.34-.95,2-.72,1.28-1.12,1.89-.85,1.21-1.32,1.78a20.86,20.86,0,0,1-1.48,1.64c-.52.52-1.07,1-1.64,1.49s-1.17.9-1.78,1.31-1.25.78-1.89,1.13-1.32.66-2,.94-1.38.53-2.08.74-1.42.4-2.13.54-1.46.26-2.19.33S202.21,255.15,201.48,255.15Z"/><path d="M250.14,384c-61.64,0-132.39-12.62-132.39-111,0-40.27,13.76-70.12,40.91-88.72,21.88-15,51.81-22.28,91.48-22.28A142,142,0,0,1,343,196.81c25.15,21.76,39.57,49.54,39.57,76.2,0,30.22-14.17,58.46-39.89,79.49C317.8,372.82,285,384,250.14,384Zm0-192c-33.42,0-57.8,5.57-74.53,17-18.75,12.85-27.86,33.77-27.86,64,0,43.18,15.72,58.38,27.55,66.05C191,349.26,214.79,354,250.14,354c56.46,0,102.39-36.34,102.39-81,0-17.69-10.92-37.69-29.2-53.51A112,112,0,0,0,250.14,192Z"/><path d="M400,188.32a15,15,0,0,1-6.46-28.55,39.72,39.72,0,1,0-46.33-62.72,15,15,0,1,1-22.12-20.26,69.72,69.72,0,1,1,81.35,110.07A15,15,0,0,1,400,188.32Z"/><path d="M101.5,185.07a14.94,14.94,0,0,1-6.11-1.31A69.73,69.73,0,1,1,178.13,76.38a15,15,0,0,1-23.38,18.81,39.72,39.72,0,1,0-47.12,61.18,15,15,0,0,1-6.13,28.7Z"/><path d="M274.54,316.77H225.71a15,15,0,0,1,0-30h48.83a15,15,0,0,1,0,30Z"/><path d="M356.74,326.85a15,15,0,0,1-14-9.55c-8.76-22.43-28.48-25.14-28.67-25.16a15,15,0,0,1,3.19-29.83c1.54.17,38,4.5,53.42,44.08a15,15,0,0,1-14,20.46Z"/><path d="M261.63,277.87h-23a15,15,0,0,1,0-30h23a15,15,0,0,1,0,30Z"/><path d="M250,277.87a15,15,0,0,1-15-15V252.68a15,15,0,0,1,30,0v10.19A15,15,0,0,1,250,277.87Z"/><path d="M250.14,140.87a15.3,15.3,0,0,1-4.36-.66c-.46-.14-.93-.31-1.38-.49s-.89-.4-1.33-.63-.85-.48-1.26-.75a14.45,14.45,0,0,1-1.18-.88,14.67,14.67,0,0,1-1.1-1c-.34-.34-.68-.71-1-1.09a15.58,15.58,0,0,1-1.62-2.45c-.23-.43-.44-.88-.63-1.33s-.35-.91-.5-1.38-.26-.95-.36-1.42-.17-1-.22-1.46a15.58,15.58,0,0,1,0-3c0-.49.13-1,.22-1.46s.22-1,.36-1.42.31-.93.5-1.38.4-.9.63-1.33a15.58,15.58,0,0,1,1.62-2.45c.31-.38.65-.75,1-1.09a14.67,14.67,0,0,1,1.1-1,14.45,14.45,0,0,1,1.18-.88q.62-.4,1.26-.75c.44-.23.88-.44,1.33-.63s.92-.35,1.38-.49.95-.26,1.43-.36a14.28,14.28,0,0,1,1.46-.22,14.68,14.68,0,0,1,4.4.22c.48.1,1,.22,1.42.36s.94.31,1.39.49.89.4,1.32.63.86.48,1.27.75.8.57,1.18.88a14.67,14.67,0,0,1,1.1,1c.34.34.68.71,1,1.09a15.58,15.58,0,0,1,1.62,2.45c.23.43.44.88.63,1.33s.35.91.5,1.38.26.95.36,1.42a14.25,14.25,0,0,1,.21,1.46,13.64,13.64,0,0,1,0,3,14.25,14.25,0,0,1-.21,1.46c-.1.47-.22.95-.36,1.42s-.31.93-.5,1.38-.4.9-.63,1.33a15.58,15.58,0,0,1-1.62,2.45c-.31.38-.65.75-1,1.09a14.67,14.67,0,0,1-1.1,1c-.38.31-.78.61-1.18.88s-.84.52-1.27.75-.87.44-1.32.63-.92.35-1.39.49a13.41,13.41,0,0,1-1.42.36,14.51,14.51,0,0,1-1.45.22A14.68,14.68,0,0,1,250.14,140.87Z"/><path d="M192.52,151.77a14.66,14.66,0,0,1-1.48-.07c-.48,0-1-.13-1.46-.22s-1-.22-1.42-.36a13.35,13.35,0,0,1-1.38-.5c-.45-.19-.9-.4-1.33-.63a13.48,13.48,0,0,1-1.26-.75,12.82,12.82,0,0,1-1.18-.87c-.39-.31-.75-.65-1.1-1a14.67,14.67,0,0,1-1-1.1c-.31-.38-.6-.77-.88-1.18s-.52-.83-.75-1.26a13.36,13.36,0,0,1-.62-1.33,14.25,14.25,0,0,1-.5-1.38c-.14-.47-.26-.95-.36-1.43a14.51,14.51,0,0,1-.22-1.45,14.66,14.66,0,0,1-.07-1.48,14.46,14.46,0,0,1,.07-1.47,14.28,14.28,0,0,1,.22-1.46c.1-.48.22-1,.36-1.42a13.53,13.53,0,0,1,.5-1.39,13.2,13.2,0,0,1,.62-1.32,14.6,14.6,0,0,1,.75-1.27c.28-.4.57-.8.88-1.18a14.67,14.67,0,0,1,1-1.1c.35-.34.71-.67,1.1-1s.77-.6,1.18-.87.83-.52,1.26-.75.88-.44,1.33-.63.91-.35,1.38-.5,1-.26,1.42-.36a15.51,15.51,0,0,1,4.41-.21,14.25,14.25,0,0,1,1.46.21c.47.1,1,.22,1.42.36s.93.31,1.38.5.9.4,1.33.63a14.43,14.43,0,0,1,1.26.75c.41.27.81.57,1.18.87s.75.65,1.1,1a14.67,14.67,0,0,1,1,1.1c.31.38.6.78.88,1.18a14.6,14.6,0,0,1,.75,1.27q.34.64.63,1.32c.18.45.35.92.49,1.39a11.35,11.35,0,0,1,.36,1.42,14.28,14.28,0,0,1,.22,1.46,14.48,14.48,0,0,1,.08,1.47,14.68,14.68,0,0,1-.08,1.48,14.51,14.51,0,0,1-.22,1.45,12,12,0,0,1-.36,1.43c-.14.46-.31.93-.49,1.38s-.4.9-.63,1.33-.48.85-.75,1.26-.57.8-.88,1.18a14.67,14.67,0,0,1-1,1.1c-.35.34-.71.68-1.1,1a12.82,12.82,0,0,1-1.18.87,12.3,12.3,0,0,1-1.26.75c-.43.23-.88.44-1.33.63a13.35,13.35,0,0,1-1.38.5c-.47.14-1,.26-1.42.36s-1,.17-1.46.22A14.46,14.46,0,0,1,192.52,151.77Z"/><path d="M307.76,151.77a14.46,14.46,0,0,1-1.47-.07c-.49,0-1-.13-1.46-.22s-.95-.22-1.42-.36-.93-.31-1.38-.5-.9-.4-1.33-.63a15.58,15.58,0,0,1-2.45-1.62c-.38-.31-.75-.65-1.09-1a14.67,14.67,0,0,1-1-1.1c-.31-.38-.61-.78-.88-1.18a14.6,14.6,0,0,1-.75-1.27q-.35-.65-.63-1.32c-.18-.45-.35-.92-.49-1.38a12,12,0,0,1-.36-1.43,14.51,14.51,0,0,1-.22-1.45,14.68,14.68,0,0,1-.08-1.48,14.48,14.48,0,0,1,.08-1.47,14.28,14.28,0,0,1,.22-1.46,11.35,11.35,0,0,1,.36-1.42c.14-.47.31-.94.49-1.39s.4-.89.63-1.32a14.6,14.6,0,0,1,.75-1.27c.27-.4.57-.8.88-1.18a14.67,14.67,0,0,1,1-1.1c.34-.34.71-.68,1.09-1a15.58,15.58,0,0,1,2.45-1.62c.43-.23.88-.44,1.33-.63s.91-.35,1.38-.5.95-.26,1.42-.36a14.25,14.25,0,0,1,1.46-.21,14.54,14.54,0,0,1,2.95,0,14.06,14.06,0,0,1,1.45.21c.48.1,1,.22,1.43.36s.93.31,1.38.5.9.4,1.33.63a14.43,14.43,0,0,1,1.26.75,12.82,12.82,0,0,1,1.18.87c.39.31.75.65,1.1,1a14.67,14.67,0,0,1,1,1.1c.31.38.6.78.88,1.18a14.6,14.6,0,0,1,.75,1.27q.35.64.63,1.32c.18.45.35.92.49,1.39a13.41,13.41,0,0,1,.36,1.42,14.28,14.28,0,0,1,.22,1.46,14.48,14.48,0,0,1,.08,1.47,14.68,14.68,0,0,1-.08,1.48,14.51,14.51,0,0,1-.22,1.45,14.24,14.24,0,0,1-.36,1.43c-.14.46-.31.93-.49,1.38s-.4.89-.63,1.32a14.6,14.6,0,0,1-.75,1.27c-.28.4-.57.8-.88,1.18a14.67,14.67,0,0,1-1,1.1c-.35.34-.71.68-1.1,1a12.82,12.82,0,0,1-1.18.87,14.43,14.43,0,0,1-1.26.75c-.43.23-.88.44-1.33.63s-.91.35-1.38.5-.95.26-1.43.36-1,.17-1.45.22A14.66,14.66,0,0,1,307.76,151.77Z"/><path d="M450.05,452.35H49.91a15,15,0,0,1-14.55-18.64,131.45,131.45,0,0,1,16-37.5c24-38.57,27.23-109.09,27.27-173,.07-95,76.77-172.56,171-172.87h.6A171.58,171.58,0,0,1,421.7,221.91c0,64,3.19,134.76,26.86,173.63a138.53,138.53,0,0,1,16,38.14,15,15,0,0,1-14.55,18.67Zm-378.89-30H428.91a107.48,107.48,0,0,0-6-11.2c-27.46-45.09-31.24-117.6-31.24-189.24A141.57,141.57,0,0,0,250.14,80.35h-.49c-77.73.26-141,64.36-141.07,142.89,0,71.55-3.94,143.94-31.79,188.79A105.45,105.45,0,0,0,71.16,422.35Z"/></g></svg>
