<?xml version="1.0" ?><svg viewBox="0 0 512 512" xmlns="http://www.w3.org/2000/svg" fill="white"><title/><g data-name="1" id="_1"><path d="M198,202c-9,0-36.53,0-51.41-23a15,15,0,0,1,0-16.3,61.21,61.21,0,0,1,102.83,0,15,15,0,0,1,0,16.3C234.51,202,207,202,198,202Zm-17-32.3c3.89,1.39,9.29,2.3,17,2.3s13.08-.91,17-2.3a31.26,31.26,0,0,0-33.92,0Z"/><path d="M312.29,212c-18.83,0-38.05-12.34-51.42-33a15,15,0,0,1,0-16.3,61.21,61.21,0,0,1,102.83,0,15,15,0,0,1,0,16.3C350.33,199.66,331.11,212,312.29,212Zm-19.4-40.54c7.28,7.63,14.58,10.54,19.4,10.54s12.12-2.91,19.39-10.54a31.2,31.2,0,0,0-38.79,0Z"/><path d="M151.49,310a64.66,64.66,0,0,1-16.18-2.11,15,15,0,0,1,7.45-29.06c13.75,3.53,23.45-1.29,40.82-10.83s39.1-21.48,71.55-21.48,54.14,11.91,71.56,21.48,27.07,14.36,40.81,10.83A15,15,0,0,1,375,307.91c-25.88,6.64-44.61-3.65-62.72-13.6-15.9-8.73-32.35-17.77-57.11-17.77s-41.2,9-57.1,17.77C183.92,302.06,169.44,310,151.49,310Z"/><path d="M224.43,238.64a13,13,0,0,1-5.24-24.9l14.11-6.21a13,13,0,1,1,10.48,23.8l-14.12,6.21A12.93,12.93,0,0,1,224.43,238.64Z"/><path d="M286.75,239a12.93,12.93,0,0,1-5.23-1.1l-15-6.61A13,13,0,0,1,277,207.53l15,6.61a13,13,0,0,1-5.24,24.9Z"/><path d="M158.68,367.41a15,15,0,0,1-4.05-.56c-46.25-13-74.21-34.85-85.49-67A15,15,0,0,1,97.45,290c7.9,22.5,28.64,37.75,65.27,48a15,15,0,0,1-4,29.45Z"/><path d="M351.59,367.41a15,15,0,0,1-4-29.45c36.62-10.26,57.36-25.51,65.27-48a15,15,0,0,1,28.3,9.94c-11.28,32.11-39.24,54-85.48,67A14.93,14.93,0,0,1,351.59,367.41Z"/><path d="M255.13,358.71a86.32,86.32,0,0,1-61.44-25.45,13,13,0,0,1,18.38-18.38,60.92,60.92,0,0,0,86.13,0,13,13,0,0,1,18.38,18.38A86.33,86.33,0,0,1,255.13,358.71Z"/><path d="M297.28,430.15a13,13,0,0,1,0-26,256.85,256.85,0,0,0,40.87-3,13,13,0,0,1,4.09,25.68A283.11,283.11,0,0,1,297.28,430.15Z"/><path d="M297.28,432.15a15,15,0,0,1,0-30c48.92,0,87-11.41,113.24-33.93a40.93,40.93,0,0,0,13.38-38.29c-3-16.73-8.25-25-8.92-26a14,14,0,0,1-2.66-12.25c10.7-48.5-3.82-94.35-43.17-136.29-33.87-36.11-77.8-60.26-101-71.44a29.86,29.86,0,0,0-26.09,0c-23.17,11.18-67.1,35.33-101,71.44-39.34,41.94-53.86,87.79-43.17,136.29a13.94,13.94,0,0,1-2.65,12.25c-.68,1-5.89,9.27-8.93,26a41,41,0,0,0,13.39,38.29C126,390.74,164.07,402.15,213,402.15a15,15,0,0,1,0,30C156.7,432.15,112,418.3,80.2,391a71.06,71.06,0,0,1-23.35-66.41c2.82-15.57,7.32-26.2,10.59-32.36a163.18,163.18,0,0,1,6.85-86.57c8.93-24.69,24-48.5,44.95-70.77C156.43,95.22,204,69,229.05,56.94a59.71,59.71,0,0,1,52.16,0C306.26,69,353.83,95.22,391,134.87c20.89,22.27,36,46.08,45,70.77a163.28,163.28,0,0,1,6.85,86.57c3.26,6.16,7.76,16.79,10.59,32.36A71.06,71.06,0,0,1,430.07,391C398.25,418.3,353.57,432.15,297.28,432.15Z"/><path d="M236.81,185.85h-.63a15,15,0,0,1-14.36-15.59c.24-6.81-1.11-28.2-10.19-37.28a15,15,0,0,1,21.21-21.21c20,20,19.12,55.71,18.95,59.71A15,15,0,0,1,236.81,185.85Z"/><path d="M273.45,185.85a15,15,0,0,1-15-14.38c-.17-4-1.05-39.72,18.95-59.71A15,15,0,0,1,298.64,133c-8.51,8.51-10.54,28.78-10.19,37.26a15,15,0,0,1-14.36,15.61Z"/><path d="M387.38,237.05c-.42,0-.85,0-1.27-.06s-.85-.11-1.27-.19a13.12,13.12,0,0,1-2.43-.75,12.65,12.65,0,0,1-2.24-1.19c-.36-.24-.7-.49-1-.76s-.65-.56-.95-.86-.59-.62-.86-1-.52-.67-.76-1a13.34,13.34,0,0,1-1.19-2.24,12.17,12.17,0,0,1-.74-2.43,11,11,0,0,1-.19-1.26,11.1,11.1,0,0,1-.07-1.28,13.45,13.45,0,0,1,.26-2.54,12.17,12.17,0,0,1,.74-2.43,13.43,13.43,0,0,1,1.19-2.25c.24-.35.49-.7.76-1s.56-.65.86-.95.62-.59.95-.86a10.93,10.93,0,0,1,1-.76,13.38,13.38,0,0,1,2.24-1.2,13.89,13.89,0,0,1,2.43-.74c.42-.08.84-.14,1.27-.19a13.58,13.58,0,0,1,2.55,0c.42,0,.85.11,1.26.19a13.64,13.64,0,0,1,2.43.74,13.48,13.48,0,0,1,2.25,1.2,10.8,10.8,0,0,1,1,.76c.33.27.65.56.95.86s.59.62.86.95a10.8,10.8,0,0,1,.76,1,13.48,13.48,0,0,1,1.2,2.25,13.64,13.64,0,0,1,.74,2.43c.08.42.15.84.19,1.26s.06.85.06,1.28,0,.85-.06,1.28-.11.84-.19,1.26a13.64,13.64,0,0,1-.74,2.43,13.38,13.38,0,0,1-1.2,2.24,10.93,10.93,0,0,1-.76,1c-.27.33-.56.65-.86,1s-.62.59-.95.86-.67.52-1,.76a12.74,12.74,0,0,1-2.25,1.19,12.89,12.89,0,0,1-2.43.75c-.41.08-.84.14-1.26.19S387.81,237.05,387.38,237.05Z"/><path d="M393.55,270.6c-.43,0-.86,0-1.28-.06s-.85-.11-1.26-.19a14,14,0,0,1-2.44-.74,13.38,13.38,0,0,1-2.24-1.2,12.4,12.4,0,0,1-1-.76c-.33-.27-.65-.55-.95-.85s-.59-.62-.86-.95-.52-.68-.75-1a13.48,13.48,0,0,1-1.2-2.25,13.64,13.64,0,0,1-.74-2.43c-.08-.41-.15-.84-.19-1.26s-.07-.85-.07-1.28a13.09,13.09,0,0,1,3.81-9.19c.3-.3.62-.59.95-.86s.68-.52,1-.76a13.34,13.34,0,0,1,2.24-1.19,13.19,13.19,0,0,1,2.44-.74,10.64,10.64,0,0,1,1.26-.19,12.08,12.08,0,0,1,2.55,0,10.8,10.8,0,0,1,1.27.19,13.09,13.09,0,0,1,2.43.74,13.34,13.34,0,0,1,2.24,1.19c.36.24.7.49,1,.76s.65.56.95.86a13.09,13.09,0,0,1,3.81,9.19c0,.43,0,.86-.07,1.28a10.64,10.64,0,0,1-.19,1.26,12.86,12.86,0,0,1-.74,2.43,13.43,13.43,0,0,1-1.19,2.25c-.24.35-.5.7-.76,1s-.56.65-.86.95-.62.58-.95.85a10.93,10.93,0,0,1-1,.76,13.38,13.38,0,0,1-2.24,1.2,13.89,13.89,0,0,1-2.43.74c-.42.08-.84.15-1.27.19S394,270.6,393.55,270.6Z"/><path d="M364.79,258.28a10.86,10.86,0,0,1-1.28-.07,10.64,10.64,0,0,1-1.26-.19,12.47,12.47,0,0,1-2.44-.74,13.34,13.34,0,0,1-2.24-1.19c-.35-.24-.7-.49-1-.76s-.65-.56-1-.86-.59-.62-.86-.95-.52-.67-.75-1a13.38,13.38,0,0,1-1.2-2.24,13.89,13.89,0,0,1-.74-2.43c-.08-.42-.15-.84-.19-1.26s-.06-.86-.06-1.28,0-.86.06-1.28.11-.85.19-1.26a14,14,0,0,1,.74-2.44,13.79,13.79,0,0,1,1.2-2.24c.23-.35.49-.7.75-1s.56-.64.86-.94.62-.59,1-.86a12.4,12.4,0,0,1,1-.76,13.38,13.38,0,0,1,2.24-1.2,14,14,0,0,1,2.44-.74c.41-.08.84-.15,1.26-.19a13.58,13.58,0,0,1,2.55,0c.43,0,.85.11,1.27.19a14.16,14.16,0,0,1,2.43.74,13.38,13.38,0,0,1,2.24,1.2,10.93,10.93,0,0,1,1,.76c.33.27.65.56,1,.86s.59.61.86.94.52.68.75,1a13.79,13.79,0,0,1,1.2,2.24,14,14,0,0,1,.74,2.44c.08.41.15.84.19,1.26s.06.85.06,1.28,0,.85-.06,1.28-.11.84-.19,1.26a13.89,13.89,0,0,1-.74,2.43,13.38,13.38,0,0,1-1.2,2.24c-.23.36-.49.7-.75,1s-.56.65-.86.95A13.09,13.09,0,0,1,364.79,258.28Z"/><path d="M122.88,237.05a10.81,10.81,0,0,1-1.27-.07,11.12,11.12,0,0,1-1.27-.19,13.19,13.19,0,0,1-4.67-1.93c-.35-.24-.7-.49-1-.76s-.65-.56-1-.86-.59-.62-.86-1-.52-.67-.75-1a13.38,13.38,0,0,1-1.2-2.24,13.64,13.64,0,0,1-.74-2.43c-.08-.42-.15-.84-.19-1.26s-.06-.86-.06-1.28,0-.85.06-1.28.11-.84.19-1.26a13.64,13.64,0,0,1,.74-2.43,13.48,13.48,0,0,1,1.2-2.25c.23-.35.49-.7.75-1s.56-.65.86-.95.62-.59,1-.86.68-.52,1-.76a12.65,12.65,0,0,1,2.24-1.19,13.36,13.36,0,0,1,2.43-.75c.42-.08.85-.14,1.27-.19a13.06,13.06,0,0,1,10.46,3.75,11,11,0,0,1,.86.95,10.8,10.8,0,0,1,.76,1,13.48,13.48,0,0,1,1.2,2.25,13.64,13.64,0,0,1,.74,2.43c.08.42.15.84.19,1.26s.06.86.06,1.28,0,.85-.06,1.28-.11.84-.19,1.26a13.64,13.64,0,0,1-.74,2.43,13.38,13.38,0,0,1-1.2,2.24,12.81,12.81,0,0,1-1.62,2A13.05,13.05,0,0,1,122.88,237.05Z"/><path d="M116.72,270.6c-.42,0-.85,0-1.28-.06s-.84-.11-1.26-.19a13.64,13.64,0,0,1-2.43-.74,13.38,13.38,0,0,1-2.24-1.2,10.93,10.93,0,0,1-1-.76c-.33-.27-.65-.55-1-.85s-.59-.62-.86-.95-.52-.68-.76-1a13.43,13.43,0,0,1-1.19-2.25,12.17,12.17,0,0,1-.74-2.43,10.64,10.64,0,0,1-.19-1.26,10.86,10.86,0,0,1-.07-1.28,11.1,11.1,0,0,1,.07-1.28,11,11,0,0,1,.19-1.26,12.37,12.37,0,0,1,.74-2.43,13.34,13.34,0,0,1,1.19-2.24c.24-.36.49-.7.76-1s.56-.65.86-1,.62-.59,1-.86.67-.52,1-.76a13.34,13.34,0,0,1,2.24-1.19,12.17,12.17,0,0,1,2.43-.74,11,11,0,0,1,1.26-.19,12.17,12.17,0,0,1,2.56,0,10.64,10.64,0,0,1,1.26.19,12.17,12.17,0,0,1,2.43.74,13.43,13.43,0,0,1,2.25,1.19c.35.24.7.49,1,.76s.64.56.94.86.59.62.86,1a10.93,10.93,0,0,1,.76,1,13.38,13.38,0,0,1,1.2,2.24,13.89,13.89,0,0,1,.74,2.43c.08.42.15.84.19,1.26s.06.86.06,1.28,0,.86-.06,1.28-.11.85-.19,1.26a13.64,13.64,0,0,1-.74,2.43,13.48,13.48,0,0,1-1.2,2.25,12.4,12.4,0,0,1-.76,1c-.27.33-.56.65-.86.95a12.64,12.64,0,0,1-.94.85,12.4,12.4,0,0,1-1,.76,13.48,13.48,0,0,1-2.25,1.2,13.64,13.64,0,0,1-2.43.74c-.41.08-.84.15-1.26.19S117.15,270.6,116.72,270.6Z"/><path d="M145.48,258.28a11.1,11.1,0,0,1-1.28-.07,11,11,0,0,1-1.26-.19,12.37,12.37,0,0,1-2.43-.74,13.34,13.34,0,0,1-2.24-1.19c-.36-.24-.7-.49-1-.76s-.65-.56-1-.86-.59-.62-.86-.95-.52-.67-.76-1a13.34,13.34,0,0,1-1.19-2.24,12.37,12.37,0,0,1-.74-2.43,11,11,0,0,1-.19-1.26,11.1,11.1,0,0,1-.07-1.28,10.86,10.86,0,0,1,.07-1.28,10.64,10.64,0,0,1,.19-1.26,12.17,12.17,0,0,1,.74-2.43,13.43,13.43,0,0,1,1.19-2.25c.24-.35.49-.7.76-1s.56-.65.86-.95.62-.59,1-.86a10.93,10.93,0,0,1,1-.76,13.38,13.38,0,0,1,2.24-1.2,13.64,13.64,0,0,1,2.43-.74c.42-.08.84-.15,1.26-.19a13.68,13.68,0,0,1,2.56,0c.42,0,.85.11,1.26.19a13.64,13.64,0,0,1,2.43.74,13.48,13.48,0,0,1,2.25,1.2,10.8,10.8,0,0,1,1,.76,11.16,11.16,0,0,1,.95.86c.3.3.59.62.86.95a10.8,10.8,0,0,1,.76,1,13.48,13.48,0,0,1,1.2,2.25,13.64,13.64,0,0,1,.74,2.43c.08.41.15.84.19,1.26s.06.85.06,1.28,0,.85-.06,1.28-.11.84-.19,1.26a13.89,13.89,0,0,1-.74,2.43,13.38,13.38,0,0,1-1.2,2.24,10.93,10.93,0,0,1-.76,1c-.27.33-.56.65-.86.95a11.16,11.16,0,0,1-.95.86c-.32.27-.67.52-1,.76a13.43,13.43,0,0,1-2.25,1.19A12.17,12.17,0,0,1,148,258a10.64,10.64,0,0,1-1.26.19A10.86,10.86,0,0,1,145.48,258.28Z"/></g></svg>
