<?xml version="1.0" ?><svg viewBox="0 0 512 512" xmlns="http://www.w3.org/2000/svg" fill="white"><title/><g data-name="1" id="_1"><path d="M300.19,354.71l-1.23,0c-.4,0-.82-.05-1.22-.09-.81-.09-1.63-.21-2.43-.37a23.48,23.48,0,0,1-2.37-.6c-.78-.24-1.56-.52-2.31-.83s-1.49-.66-2.21-1-1.43-.81-2.1-1.25-1.35-.95-2-1.46c-.31-.26-.63-.53-.93-.8s-.6-.56-.89-.85-.58-.59-.85-.9-.55-.61-.81-.93c-.51-.63-1-1.29-1.45-2s-.87-1.39-1.26-2.11-.73-1.46-1-2.21-.59-1.52-.83-2.3-.44-1.58-.6-2.38-.28-1.61-.36-2.42c0-.41-.08-.82-.1-1.23s0-.82,0-1.23,0-.82,0-1.23.06-.82.1-1.23c.08-.81.2-1.62.36-2.42s.37-1.6.6-2.38.52-1.55.83-2.3.66-1.5,1-2.21.81-1.43,1.26-2.11.94-1.34,1.45-2q.39-.48.81-.93c.27-.31.56-.61.85-.9s.59-.57.89-.85.62-.54.93-.8c.63-.51,1.3-1,2-1.45a23.33,23.33,0,0,1,2.1-1.26c.72-.38,1.46-.73,2.21-1a25.27,25.27,0,0,1,4.68-1.43c.8-.16,1.62-.28,2.43-.37.4,0,.82-.07,1.22-.09.82,0,1.65,0,2.47,0,.4,0,.82.05,1.22.09.81.09,1.63.21,2.43.37a24.18,24.18,0,0,1,2.37.6,24.49,24.49,0,0,1,2.31.83c.75.31,1.49.66,2.21,1a23.33,23.33,0,0,1,2.1,1.26c.68.45,1.35.94,2,1.45.31.26.63.53.93.8s.6.56.89.85.58.59.85.9.55.61.8.93a23.32,23.32,0,0,1,1.46,2c.45.68.87,1.39,1.25,2.11a22.33,22.33,0,0,1,1,2.21c.31.75.59,1.52.83,2.3s.43,1.58.59,2.38a22.1,22.1,0,0,1,.37,2.42q.06.62.09,1.23t0,1.23q0,.62,0,1.23t-.09,1.23a22.1,22.1,0,0,1-.37,2.42c-.16.8-.36,1.6-.59,2.38s-.52,1.55-.83,2.3a22.33,22.33,0,0,1-1,2.21c-.38.72-.8,1.43-1.25,2.11a23.32,23.32,0,0,1-1.46,2c-.25.32-.52.63-.8.93s-.56.61-.85.9-.59.57-.89.85-.62.54-.93.8c-.63.51-1.3,1-2,1.46s-1.38.87-2.1,1.25-1.46.73-2.21,1-1.53.59-2.31.83a24.18,24.18,0,0,1-2.37.6c-.8.16-1.62.28-2.43.37-.4,0-.82.07-1.22.09S300.6,354.71,300.19,354.71Z"/><path d="M201.38,354.71l-1.23,0c-.41,0-.82-.05-1.22-.09-.81-.09-1.63-.21-2.43-.37a25.27,25.27,0,0,1-4.68-1.43c-.75-.31-1.49-.66-2.21-1a23.24,23.24,0,0,1-2.1-1.25c-.68-.46-1.35-.95-2-1.46-.31-.26-.63-.53-.93-.8s-.6-.56-.89-.85-.58-.59-.85-.89-.55-.62-.8-.94a23.32,23.32,0,0,1-1.46-2c-.45-.68-.87-1.39-1.26-2.11s-.73-1.46-1-2.21-.59-1.52-.83-2.3-.44-1.58-.6-2.37-.28-1.62-.36-2.43c0-.41-.07-.82-.1-1.23s0-.82,0-1.23,0-.82,0-1.23.06-.82.1-1.23c.08-.81.2-1.62.36-2.42s.37-1.6.6-2.38.52-1.55.83-2.3.66-1.5,1-2.21.81-1.43,1.26-2.11a23.32,23.32,0,0,1,1.46-2c.25-.32.52-.63.8-.94s.56-.6.85-.89.59-.57.89-.85.62-.54.93-.8c.63-.51,1.3-1,2-1.46a23.24,23.24,0,0,1,2.1-1.25c.72-.38,1.46-.73,2.21-1a25.27,25.27,0,0,1,4.68-1.43c.8-.16,1.62-.28,2.43-.37.4,0,.81-.07,1.22-.09.82,0,1.65,0,2.47,0,.4,0,.82.05,1.22.09.81.09,1.63.21,2.43.37s1.59.36,2.37.6a24.49,24.49,0,0,1,2.31.83c.75.31,1.49.66,2.21,1s1.42.8,2.1,1.25,1.35.95,2,1.46c.32.26.64.53.94.8s.6.56.89.85.58.59.85.89.54.62.8.94a23.32,23.32,0,0,1,1.46,2c.45.68.87,1.39,1.25,2.11a22.33,22.33,0,0,1,1.05,2.21c.31.75.59,1.52.83,2.3s.43,1.58.6,2.38.28,1.61.36,2.42q.06.62.09,1.23c0,.41,0,.82,0,1.23s0,.82,0,1.23,0,.82-.09,1.23q-.12,1.21-.36,2.43c-.17.79-.37,1.59-.6,2.37s-.52,1.55-.83,2.3a22.33,22.33,0,0,1-1.05,2.21c-.38.72-.8,1.43-1.25,2.11a23.32,23.32,0,0,1-1.46,2c-.26.32-.53.63-.8.94s-.56.6-.85.89-.59.57-.89.85-.62.54-.94.8c-.62.51-1.29,1-2,1.46s-1.38.87-2.1,1.25-1.46.73-2.21,1a24.49,24.49,0,0,1-2.31.83c-.78.24-1.58.44-2.37.6s-1.62.28-2.43.37c-.4,0-.82.07-1.22.09S201.79,354.71,201.38,354.71Z"/><path d="M349.26,452.35H155.34a120.53,120.53,0,0,1-49.78-10.43,114.11,114.11,0,0,1-42.12-32.28A50.63,50.63,0,0,1,54,365.38C80.24,264.77,127.09,168.74,193.26,80a73.68,73.68,0,0,1,118.08,0c66.17,88.78,113,184.81,139.24,285.42a50.61,50.61,0,0,1-9.43,44.25A113.92,113.92,0,0,1,399,441.92h0A120.57,120.57,0,0,1,349.26,452.35Zm-97-372a43.25,43.25,0,0,0-35,17.52c-63.85,85.67-109,178.21-134.26,275.06a20.47,20.47,0,0,0,3.79,17.92,83.72,83.72,0,0,0,31,23.7,90.75,90.75,0,0,0,37.48,7.79H349.26a90.71,90.71,0,0,0,37.47-7.79h0a83.63,83.63,0,0,0,31-23.7,20.5,20.5,0,0,0,3.8-17.92C396.3,276.09,351.13,183.55,287.28,97.88A43.21,43.21,0,0,0,252.3,80.36Z"/><path d="M262.92,410.22c-3.5,0-7-.05-10.58-.15-49.4,1.38-93.57-6.87-131.31-24.54a15,15,0,0,1-8.19-17.23c10.23-40.75,26.14-74.74,48.65-103.9,21.68-28.07,49-51,83.56-70.25a15,15,0,0,1,14.58,0c34.55,19.2,61.88,42.18,83.56,70.25,22.51,29.16,38.42,63.15,48.65,103.9a15,15,0,0,1-8.19,17.23C348.63,401.93,308.06,410.21,262.92,410.22Zm-10.58-30.16h.44c39.82,1.16,75.61-4.47,106.62-16.74-18.19-61.95-52.53-106.43-107.06-138.77-54.53,32.34-88.87,76.82-107.06,138.77,31,12.27,66.81,17.9,106.62,16.74Z"/><path d="M123.56,405a15.3,15.3,0,0,1-3.14-.33,15,15,0,0,1-11.55-17.8l3.85-18.06a15,15,0,0,1,29.34,6.25l-3.85,18.06A15,15,0,0,1,123.56,405Z"/><path d="M381.12,405a15,15,0,0,1-14.66-11.88l-3.84-18.06A15,15,0,0,1,392,368.82l3.85,18.06a15,15,0,0,1-11.55,17.8A15.3,15.3,0,0,1,381.12,405Z"/></g></svg>
