<?xml version="1.0" ?><svg viewBox="0 0 512 512" xmlns="http://www.w3.org/2000/svg" fill="white"><title/><g data-name="1" id="_1"><path d="M369.85,411.63H144.14a15,15,0,0,1-15-15V177.3A128,128,0,0,1,257,49.45h0A128,128,0,0,1,384.85,177.3V396.63A15,15,0,0,1,369.85,411.63Zm-210.71-30H354.85V177.3a97.86,97.86,0,0,0-195.71,0Z"/><path d="M369.85,213.17H144.14a15,15,0,0,1,0-30H369.85a15,15,0,0,1,0,30Z"/><path d="M282.62,264.17H231.38a15,15,0,1,1,0-30h51.24a15,15,0,0,1,0,30Z"/><path d="M282.62,304.67H231.38a15,15,0,1,1,0-30h51.24a15,15,0,0,1,0,30Z"/><path d="M257,345.17a14.68,14.68,0,0,1-1.48-.08,14.51,14.51,0,0,1-1.45-.22,12,12,0,0,1-1.43-.36c-.47-.14-.93-.31-1.38-.49s-.9-.4-1.33-.63-.85-.48-1.26-.75a12.91,12.91,0,0,1-1.18-.88,14.67,14.67,0,0,1-1.1-1,12.8,12.8,0,0,1-1-1.09,16.64,16.64,0,0,1-1.63-2.45,16.57,16.57,0,0,1-1.12-2.71c-.14-.47-.26-.94-.36-1.42a14.28,14.28,0,0,1-.22-1.46,14.46,14.46,0,0,1-.07-1.47,14.66,14.66,0,0,1,.07-1.48,14.51,14.51,0,0,1,.22-1.45c.1-.48.22-1,.36-1.43a14.25,14.25,0,0,1,.5-1.38,13.36,13.36,0,0,1,.62-1.33c.23-.43.49-.85.76-1.26a15.11,15.11,0,0,1,1.86-2.28,14.67,14.67,0,0,1,1.1-1,12.82,12.82,0,0,1,1.18-.87c.41-.27.83-.53,1.26-.76a16.57,16.57,0,0,1,2.71-1.12c.47-.14,1-.26,1.43-.36a14.68,14.68,0,0,1,4.4-.22,14.28,14.28,0,0,1,1.46.22c.48.1.95.22,1.42.36a16.57,16.57,0,0,1,2.71,1.12,16.64,16.64,0,0,1,2.45,1.63,12.8,12.8,0,0,1,1.09,1,16,16,0,0,1,1.87,2.28q.4.62.75,1.26c.23.43.44.88.63,1.33s.35.92.49,1.38a14.24,14.24,0,0,1,.36,1.43,14.51,14.51,0,0,1,.22,1.45,14.68,14.68,0,0,1,.08,1.48,14.48,14.48,0,0,1-.08,1.47,14.28,14.28,0,0,1-.22,1.46,14.06,14.06,0,0,1-.36,1.42c-.14.47-.31.93-.49,1.38s-.4.9-.63,1.33a14.43,14.43,0,0,1-.75,1.26,14.61,14.61,0,0,1-.88,1.19,15.33,15.33,0,0,1-2.08,2.08,14.61,14.61,0,0,1-1.19.88,14.43,14.43,0,0,1-1.26.75c-.43.23-.88.44-1.33.63s-.91.35-1.38.49a11.81,11.81,0,0,1-1.42.36,14.28,14.28,0,0,1-1.46.22A14.48,14.48,0,0,1,257,345.17Z"/><path d="M257,118.18a14.68,14.68,0,0,1-1.48-.08,14.51,14.51,0,0,1-1.45-.22,12,12,0,0,1-1.43-.36,13.29,13.29,0,0,1-1.38-.49c-.45-.19-.9-.4-1.33-.63s-.85-.48-1.26-.75a12.82,12.82,0,0,1-1.18-.87c-.38-.31-.75-.65-1.1-1a14.67,14.67,0,0,1-1-1.1c-.31-.38-.6-.78-.87-1.18a14.69,14.69,0,0,1-.76-1.27,13.2,13.2,0,0,1-.62-1.32,13.53,13.53,0,0,1-.5-1.39c-.14-.46-.26-.94-.36-1.42a14.28,14.28,0,0,1-.22-1.46,14.46,14.46,0,0,1-.07-1.47,14.66,14.66,0,0,1,.07-1.48,14.51,14.51,0,0,1,.22-1.45c.1-.48.22-1,.36-1.43a14.25,14.25,0,0,1,.5-1.38,13.36,13.36,0,0,1,.62-1.33c.23-.43.49-.85.76-1.26a14.34,14.34,0,0,1,.87-1.18,14.67,14.67,0,0,1,1-1.1c.35-.34.72-.68,1.1-1a12.82,12.82,0,0,1,1.18-.87c.41-.27.83-.53,1.26-.76s.88-.44,1.33-.62a13.35,13.35,0,0,1,1.38-.5c.47-.14,1-.26,1.43-.36s1-.17,1.45-.22a14.54,14.54,0,0,1,3,0c.49,0,1,.13,1.46.22s.95.22,1.42.36a13.35,13.35,0,0,1,1.38.5c.45.18.9.4,1.33.62a16.64,16.64,0,0,1,2.45,1.63c.38.31.75.65,1.09,1a14.67,14.67,0,0,1,1,1.1,14.45,14.45,0,0,1,.88,1.18q.4.62.75,1.26c.23.43.44.88.63,1.33s.35.92.49,1.38a14.24,14.24,0,0,1,.36,1.43,14.51,14.51,0,0,1,.22,1.45,14.68,14.68,0,0,1,.08,1.48,14.48,14.48,0,0,1-.08,1.47,14.28,14.28,0,0,1-.22,1.46,13.41,13.41,0,0,1-.36,1.42c-.14.47-.31.94-.49,1.39s-.4.89-.63,1.32a14.6,14.6,0,0,1-.75,1.27c-.27.4-.57.8-.88,1.18a14.67,14.67,0,0,1-1,1.1c-.34.34-.71.68-1.09,1a15.58,15.58,0,0,1-2.45,1.62c-.43.23-.88.44-1.33.63a13.29,13.29,0,0,1-1.38.49,11.81,11.81,0,0,1-1.42.36,14.28,14.28,0,0,1-1.46.22A14.48,14.48,0,0,1,257,118.18Z"/><path d="M323.67,345.17a15,15,0,0,1-15-15v-81a15,15,0,0,1,30,0v81A15,15,0,0,1,323.67,345.17Z"/><path d="M189.37,345.17a15,15,0,0,1-15-15v-81a15,15,0,1,1,30,0v81A15,15,0,0,1,189.37,345.17Z"/><path d="M413.11,392.67H369.85a15,15,0,0,1-15-15V222.17a15,15,0,0,1,15-15h43.26a15,15,0,0,1,15,15v155.5A15,15,0,0,1,413.11,392.67Zm-28.26-30h13.26V237.17H384.85Z"/><path d="M430.11,452.35H369.85a15,15,0,0,1-15-15V377.67a15,15,0,0,1,15-15h43.26a15,15,0,0,1,12.69,7l17,27a15,15,0,0,1,2.31,8v32.69A15,15,0,0,1,430.11,452.35Zm-45.26-30h30.26V409l-10.28-16.32h-20Z"/><path d="M144.14,392.67H100.88a15,15,0,0,1-15-15V222.17a15,15,0,0,1,15-15h43.26a15,15,0,0,1,15,15v155.5A15,15,0,0,1,144.14,392.67Zm-28.26-30h13.26V237.17H115.88Z"/><path d="M144.14,452.35H83.89a15,15,0,0,1-15-15V404.66a15.09,15.09,0,0,1,2.3-8l17-27a15,15,0,0,1,12.69-7h43.26a15,15,0,0,1,15,15v59.68A15,15,0,0,1,144.14,452.35Zm-45.25-30h30.25V392.67h-20L98.89,409Z"/><path d="M295.25,452.35h-76.5a15,15,0,0,1-15-15V396.63a15,15,0,0,1,15-15h76.5a15,15,0,0,1,15,15v40.72A15,15,0,0,1,295.25,452.35Zm-61.5-30h46.5V411.63h-46.5Z"/><path d="M294.5,213.17h-75a15,15,0,0,1-15-15V70.84a15,15,0,0,1,30,0V183.17h45V70.83a15,15,0,1,1,30,0V198.17A15,15,0,0,1,294.5,213.17Z"/><path d="M294.5,157.68h-75a15,15,0,0,1,0-30h75a15,15,0,0,1,0,30Z"/></g></svg>
