<?xml version="1.0" ?><svg viewBox="0 0 512 512" xmlns="http://www.w3.org/2000/svg" fill="white"><title/><g data-name="1" id="_1"><path d="M120.2,452.42A15,15,0,0,1,109.59,448l-49-49a15,15,0,0,1,0-21.21L224.4,214a15,15,0,0,1,21.22,0l49,49a15,15,0,0,1,0,21.21L130.8,448A14.91,14.91,0,0,1,120.2,452.42Zm-27.79-64,27.79,27.79L262.8,273.6,235,245.81Z"/><path d="M324.11,248.51a15,15,0,0,1-10.61-4.39l-49-49a15,15,0,0,1,0-21.21L384,54.38a15,15,0,0,1,24.66,5.36l26.61,71.41A15,15,0,0,1,431.84,147l-97.13,97.12A14.91,14.91,0,0,1,324.11,248.51Zm-27.79-64,27.79,27.79,79.7-79.7L388.72,92.1Z"/><path d="M293.82,298.4A15,15,0,0,1,283.21,294L214.6,225.4a15,15,0,0,1,0-21.21l40.1-40.09a15,15,0,0,1,21.21,0l68.61,68.61a15,15,0,0,1,0,21.21L304.42,294A15,15,0,0,1,293.82,298.4Zm-47.4-83.6,47.4,47.39,18.88-18.88-47.4-47.39Z"/><path d="M391.83,200.39A15,15,0,0,1,381.22,196l-68.61-68.61a15,15,0,0,1,21.22-21.21l68.6,68.61a15,15,0,0,1-10.6,25.6Z"/><path d="M325.51,191.1a15,15,0,0,1-10.61-4.39l-21-21a15,15,0,0,1,21.21-21.21l21,21a15,15,0,0,1-10.6,25.6Z"/><path d="M146.8,425.82a15,15,0,0,1-10.61-4.4l-49-49a15,15,0,0,1,21.21-21.21l49,49a15,15,0,0,1-10.61,25.61Z"/></g></svg>
