<?xml version="1.0" ?><svg viewBox="0 0 512 512" xmlns="http://www.w3.org/2000/svg" fill="white"><title/><g data-name="1" id="_1"><path d="M109,452.35H69.13a15,15,0,0,1-15-15v-372a15,15,0,0,1,15-15H109a15,15,0,0,1,15,15v372A15,15,0,0,1,109,452.35Zm-24.87-30H94v-342H84.13Z"/><path d="M441,452.35H401.13a15,15,0,0,1-15-15v-372a15,15,0,0,1,15-15H441a15,15,0,0,1,15,15v372A15,15,0,0,1,441,452.35Zm-24.87-30H426v-342h-9.87Z"/><path d="M109,356.14H69.13a15,15,0,0,1-15-15V161.57a15,15,0,0,1,15-15H109a15,15,0,0,1,15,15V341.14A15,15,0,0,1,109,356.14Zm-24.87-30H94V176.57H84.13Z"/><path d="M441,356.14H401.13a15,15,0,0,1-15-15V161.57a15,15,0,0,1,15-15H441a15,15,0,0,1,15,15V341.14A15,15,0,0,1,441,356.14Zm-24.87-30H426V176.57h-9.87Z"/><path d="M255.07,367.6A110.52,110.52,0,1,1,365.58,257.09,110.64,110.64,0,0,1,255.07,367.6Zm0-191a80.52,80.52,0,1,0,80.51,80.52A80.61,80.61,0,0,0,255.07,176.57Z"/><path d="M255.07,316.65A59.57,59.57,0,1,1,297.19,215h0a59.56,59.56,0,0,1-42.12,101.68Zm0-92.13a32.57,32.57,0,1,0,23,9.54h0A32.34,32.34,0,0,0,255.07,224.52Z"/><path d="M163.86,300.48a14.81,14.81,0,0,1-2.55-.22l-54.84-9.39A15,15,0,0,1,94,276.08v-38a15,15,0,0,1,12.47-14.78l54.84-9.39a15,15,0,0,1,5.06,29.57L124,250.73v12.7l42.37,7.26a15,15,0,0,1-2.51,29.79Z"/><path d="M346.27,300.48a15,15,0,0,1-2.51-29.79l42.37-7.26v-12.7l-42.37-7.25a15,15,0,0,1,5.06-29.57l54.84,9.39a15,15,0,0,1,12.47,14.78v38a15,15,0,0,1-12.47,14.79l-54.84,9.39A14.72,14.72,0,0,1,346.27,300.48Z"/><path d="M287.64,303.16a13.5,13.5,0,0,1-9.55-4L213,234.06A13.5,13.5,0,0,1,232,215l65.15,65.14a13.5,13.5,0,0,1-9.55,23.05Z"/><path d="M222.49,303.16A13.5,13.5,0,0,1,213,280.11L278.09,215a13.5,13.5,0,1,1,19.1,19.09L232,299.21A13.49,13.49,0,0,1,222.49,303.16Z"/></g></svg>
