<?xml version="1.0" ?><svg viewBox="0 0 512 512" xmlns="http://www.w3.org/2000/svg" fill="white"><title/><g data-name="1" id="_1"><path d="M326.64,387.17h-143a15,15,0,0,1-14.8-12.61l-9.51-58.72-54.54-24.27a15,15,0,0,1-8.14-18.42l13.15-39.67a15,15,0,0,1,28.48,9.43l-8.88,26.78,49.54,22.05a15,15,0,0,1,8.71,11.3l8.76,54.13H313.88L322.64,303a15,15,0,0,1,8.7-11.3l49.54-22.05L372,242.91a15,15,0,0,1,28.48-9.43l13.14,39.67a15,15,0,0,1-8.14,18.42L351,315.84l-9.51,58.72A15,15,0,0,1,326.64,387.17Z"/><path d="M375,225.48a15.24,15.24,0,0,1-2.41-.19,15,15,0,0,1-12.41-17.21A106.77,106.77,0,0,0,254.75,84.28C195.87,84.28,148,132.06,148,190.79a109.88,109.88,0,0,0,1.39,17.31,15,15,0,1,1-29.62,4.76A140.14,140.14,0,0,1,118,190.79c0-75.27,61.35-136.51,136.77-136.51a136.75,136.75,0,0,1,135,158.6A15,15,0,0,1,375,225.48Z"/><path d="M174.85,398.47A15,15,0,0,1,163,374.27l80.28-103.4a15,15,0,0,1,23.7,0l79.58,102.5a15,15,0,0,1-23.7,18.4l-67.73-87.24-68.43,88.14A15,15,0,0,1,174.85,398.47Z"/><path d="M255.4,437.15h-.53c-68.31,0-125.31-9.51-190.58-31.79a15,15,0,0,1-8.61-20.82c16.19-32.91,26.64-66,37.7-101.1,8.06-25.57,16.4-52,27.22-78.61a14.71,14.71,0,0,1,1.88-3.32A99.37,99.37,0,0,1,236,167.58l19.09,6.94,19.1-6.94a99.37,99.37,0,0,1,113.56,33.93,14.71,14.71,0,0,1,1.88,3.32c10.82,26.6,19.15,53,27.22,78.61,11.06,35.07,21.51,68.19,37.7,101.1A15,15,0,0,1,446,405.36C380.72,427.63,323.7,437.15,255.4,437.15Zm-.27-30h.26c59.22,0,109.5-7.54,165-25-13.26-29.94-22.82-60.25-32.11-89.72-7.7-24.39-15.64-49.59-25.65-74.47a69.38,69.38,0,0,0-78.15-22.22l-24.22,8.81a15,15,0,0,1-10.25,0l-24.22-8.81A69.36,69.36,0,0,0,147.64,218c-10,24.88-18,50.08-25.65,74.48-9.29,29.46-18.85,59.77-32.11,89.71,55.49,17.43,105.78,25,165,25Z"/><path d="M293.43,245.09c0-13.5-.39-24.45,17.41-24.45s32.24,11,32.24,24.45-14.44,12.41-32.24,12.41S293.43,258.6,293.43,245.09Z"/><path d="M318,272.52H307.19c-9.37.05-16.78.09-22.84-5.95s-5.93-13.05-5.92-20.62v-1.69c0-7.9,0-16.07,3.81-23.54,3.5-6.88,11.32-15.07,28.6-15.07,26.49,0,47.24,17.33,47.24,39.45,0,9.4-4,15.3-7.27,18.6C342.57,271.89,330.73,272.52,318,272.52Zm-9.49-21.78h0Zm2.33-8.24h3.81c3.76,0,8.83,0,12.4-.26-2.26-3.29-8.11-6.61-16.21-6.61a19.85,19.85,0,0,0-2.15.1c-.21,1.76-.25,4.43-.26,6.77Z"/><path d="M217.25,245.09c0-13.5.39-24.45-17.41-24.45s-32.24,11-32.24,24.45S182,257.5,199.84,257.5,217.25,258.6,217.25,245.09Z"/><path d="M192.68,272.52c-12.74,0-24.58-.63-32.81-8.83-3.32-3.3-7.27-9.2-7.27-18.6,0-22.12,20.75-39.45,47.24-39.45,9.54,0,22.25,2.61,28.6,15.07,3.82,7.47,3.82,15.64,3.81,23.54v1.69c0,7.57,0,14.72-5.92,20.62s-13.47,6-22.84,5.95H192.68Zm-9.05-30.27c3.57.3,8.63.28,12.39.26h6.23a65.47,65.47,0,0,0-.27-6.77,19.5,19.5,0,0,0-2.14-.1C191.73,235.64,185.89,239,183.63,242.25Z"/><path d="M255.13,241.35a15,15,0,0,1-15-15V59.28a15,15,0,1,1,30,0V226.35A15,15,0,0,1,255.13,241.35Z"/><path d="M255.14,295.07a15,15,0,0,1-15-15v-13a15,15,0,0,1,30,0v13A15,15,0,0,1,255.14,295.07Z"/></g></svg>
